<svg xmlns="http://www.w3.org/2000/svg" fill="#EBB845" height="40" viewBox="0 96 960 960" width="40"><path d="M92.309 868.306v-80.665q0-29.976 16.192-55.103 16.192-25.127 44.32-37.409 56.795-26.718 116.874-41.897 60.08-15.18 122.612-15.18 26.359 0 52.461 3.124 26.103 3.124 52.461 7.696v33.896q-42.948 23.924-67.166 60.295-24.217 36.372-24.217 83.346v41.897H92.309Zm399.179 0v-43.692q0-20.569 10.153-38.014 10.154-17.444 28.975-26.088 34.897-16.436 72.217-24.525 37.321-8.09 76.757-8.09 38.913 0 76.469 8.051t72.761 24.564q18.564 8.233 28.718 25.76 10.153 17.527 10.153 38.342v43.692H491.488ZM679.59 658.152q-36.218 0-61.621-25.404-25.404-25.404-25.404-61.878 0-36.217 25.404-61.62 25.403-25.404 61.621-25.404 36.473 0 61.749 25.404 25.275 25.403 25.275 61.62 0 36.474-25.275 61.878-25.276 25.404-61.749 25.404Zm-287.283-94.871q-56.262 0-95.694-39.432-39.433-39.432-39.433-95.695 0-56.262 39.433-95.694 39.432-39.432 95.694-39.432t95.695 39.432q39.432 39.432 39.432 95.694 0 56.263-39.432 95.695-39.433 39.432-95.695 39.432Z"/></svg>