<svg xmlns="http://www.w3.org/2000/svg" fill="white" height="40" viewBox="0 96 960 960" width="40"><path d="M726.667 656V529.333H600v-66.666h126.667V336h66.666v126.667H920v66.666H793.333V656h-66.666ZM360 575.333q-66 0-109.667-43.666Q206.667 488 206.667 422t43.666-109.666Q294 268.667 360 268.667t109.667 43.667Q513.333 356 513.333 422t-43.666 109.667Q426 575.333 360 575.333ZM40 896V796q0-34.666 17.5-63.166T106.667 690q70.667-32.333 131-46.5Q298 629.334 360 629.334T482 643.5q60 14.167 130.667 46.5 31.666 15 49.5 43.167Q680 761.334 680 796v100H40Z"/></svg>