<svg xmlns="http://www.w3.org/2000/svg" fill="#d1a53e" height="40" viewBox="0 96 960 960" width="40"><path d="M480 1016 359.333 895.333H186.666q-27 0-46.833-19.833T120 828.667V242q0-27.667 19.833-47.167t46.833-19.5h586.668q27 0 46.833 19.5T840 242v586.667q0 27-19.833 46.833t-46.833 19.833H600.667L480 1016Zm1.333-428q58 0 98.334-40.333Q620 507.334 620 449.334T579.667 351q-40.334-40.333-98.334-40.333T383 351q-40.333 40.334-40.333 98.334T383 547.667Q423.333 588 481.333 588ZM480 919.334l90.667-90.667h202.667v-40.666q-58-54.334-132.501-87.501-74.5-33.166-160.833-33.166T319.166 700.5q-74.5 33.167-132.5 87.501v40.666h202.667L480 919.334Z"/></svg>