<svg xmlns="http://www.w3.org/2000/svg" fill="#EBB845" height="40" viewBox="0 96 960 960" width="40"><path d="M480.059 561.127q26.941 0 46.005-19.122 19.063-19.123 19.063-46.064t-19.122-46.005q-19.123-19.063-46.064-19.063t-46.005 19.122q-19.063 19.123-19.063 46.064t19.122 46.005q19.123 19.063 46.064 19.063ZM480 968.307Q323.616 832.461 246.808 716.115 170.001 599.769 170.001 504q0-145.384 93.615-231.692Q357.231 186.001 480 186.001q122.769 0 216.384 86.307Q789.999 358.616 789.999 504q0 95.769-76.807 212.115Q636.384 832.461 480 968.307Z"/></svg>